<?xml version="1.0" standalone="no"?><!DOCTYPE svg PUBLIC "-//W3C//DTD SVG 1.1//EN" "http://www.w3.org/Graphics/SVG/1.1/DTD/svg11.dtd"><svg t="1692108165714" class="icon" viewBox="0 0 1024 1024" version="1.1" xmlns="http://www.w3.org/2000/svg" p-id="4999" xmlns:xlink="http://www.w3.org/1999/xlink" width="128" height="128"><path d="M941.81348693 705.7113088l-1.24627626-1.2091392-54.0409856-52.72917333-44.51314347-43.44272214-4.13313707-4.03810986c-2.38987947-1.7104896-5.0757632-2.78309547-7.98665386-2.78309547-9.388032 0-16.98911573 10.1515264-16.98911574 22.6885632v61.58199467h-54.22994773a76.45866667 76.45866667 0 0 1-66.21538987-38.22933334l-5.06484053-8.7719936 0.18786987 0.03495254-234.6647552-406.4509952-0.00109227-0.00109227-0.00109227-0.00109227c-27.31649707-47.31153067-77.7977856-76.45538987-132.4285952-76.45538986h-58.33796266c-15.08857173-34.9077504-49.82483627-59.33847893-90.2725632-59.33847894-54.29220693 0-98.304 44.01179307-98.304 98.304s44.01179307 98.304 98.304 98.304c41.01352107 0 76.15501653-25.1199488 90.89406293-60.8108544h57.71646293a76.45866667 76.45866667 0 0 1 63.78728107 34.31355734l241.9687424 419.10272 0.00109227 0.00109226 0.00109226 0.00109227c27.31649707 47.31153067 77.7977856 76.45538987 132.4285952 76.45538987h54.22994774v60.48863573c0 12.52283733 7.602176 22.6885632 16.98911573 22.6885632 3.37619627 0 6.504448-1.3631488 9.1521024-3.6175872 0.3735552-0.3145728 0.71325013-0.68048213 1.06496-1.02673067l46.4289792-45.318144 54.0278784-52.6942208 1.28232107-1.25719893c4.00861867-4.14405973 6.63661227-10.5742336 6.63661226-17.88040533-0.0131072-7.3203712-2.64000853-13.76474453-6.6715648-17.90880427z m-769.93768106-472.612864c-21.11351467 0-38.22933333-17.11581867-38.22933334-38.22933333s17.11581867-38.22933333 38.22933334-38.22933334 38.22933333 17.11581867 38.22933333 38.22933334-17.11581867 38.22933333-38.22933333 38.22933333z" fill="#006569" p-id="5000"></path></svg>