<?xml version="1.0" standalone="no"?><!DOCTYPE svg PUBLIC "-//W3C//DTD SVG 1.1//EN" "http://www.w3.org/Graphics/SVG/1.1/DTD/svg11.dtd"><svg t="1692108273000" class="icon" viewBox="0 0 1024 1024" version="1.1" xmlns="http://www.w3.org/2000/svg" p-id="10869" xmlns:xlink="http://www.w3.org/1999/xlink" width="128" height="128"><path d="M512 162c47.3 0 93.1 9.2 136.2 27.5 41.7 17.6 79.1 42.9 111.3 75 32.2 32.2 57.4 69.6 75 111.3C852.8 418.9 862 464.7 862 512s-9.2 93.1-27.5 136.2c-17.6 41.7-42.9 79.1-75 111.3-32.2 32.2-69.6 57.4-111.3 75C605.1 852.8 559.3 862 512 862s-93.1-9.2-136.2-27.5c-41.7-17.6-79.1-42.9-111.3-75-32.2-32.2-57.4-69.6-75-111.3C171.2 605.1 162 559.3 162 512s9.2-93.1 27.5-136.2c17.6-41.7 42.9-79.1 75-111.3 32.2-32.2 69.6-57.4 111.3-75C418.9 171.2 464.7 162 512 162m0-80C274.5 82 82 274.5 82 512s192.5 430 430 430 430-192.5 430-430S749.5 82 512 82z" fill="#4a5fe2" p-id="10870"></path><path d="M592 685.3H432c-51.5 0-93.3-41.9-93.3-93.3V432c0-51.5 41.9-93.3 93.3-93.3h160c51.5 0 93.3 41.9 93.3 93.3v160c0 51.5-41.8 93.3-93.3 93.3z m-160-260c-3.7 0-6.7 3-6.7 6.7v160c0 3.7 3 6.7 6.7 6.7h160c3.7 0 6.7-3 6.7-6.7V432c0-3.7-3-6.7-6.7-6.7H432z" fill="#7c44e2" p-id="10871"></path></svg>