<?xml version="1.0" encoding="utf-8"?>
<!-- Generator: Adobe Illustrator 23.0.2, SVG Export Plug-In . SVG Version: 6.00 Build 0)  -->
<svg version="1.1" id="图层_1" xmlns="http://www.w3.org/2000/svg" xmlns:xlink="http://www.w3.org/1999/xlink" x="0px" y="0px"
	 viewBox="0 0 532 200" style="enable-background:new 0 0 532 200;" xml:space="preserve">
<style type="text/css">
	.st0{fill:#008EFF;}
</style>
<path class="st0" d="M28.1,94c1-0.1,19.5-1.7,19.5-1.7c0.9-0.1,1.8-0.6,2.2-1.4c2.3-4.1,3.5-18.9,3.5-26.9v-0.2l-1.6-22.4
	c0-0.1-1.1-20.5-1.1-22.3v-0.2l0.4-7c0.1-1.1,0.7-2.1,1.7-2.5c9.2-4.3,16.1-7.3,20.6-9c1.2-0.4,2.6-0.1,3.4,0.9
	c12.6,15.4,23.5,28.2,32.8,38.5c9.6,10.5,17.3,18.3,23.3,23.3l0.2,0.2c2.2,1.6,5.6,2.9,10.4,4l11.5,2.8c0.4,0.1,0.9,0.1,1.3,0
	l136-27.7c1.6-0.3,2.7-1.9,2.3-3.5c-0.1-0.4-0.2-0.7-0.4-1c-0.2-0.3-0.4-0.6-0.5-0.9c-1.4-2.6,0.3-4.6,2.4-5c0.2,0,0.3,0,0.5-0.1
	c1.6,0,3.2,0.5,4.5,1.4c6.1,4,8.6,7.5,9.9,7.5c4.5,0,11.2-1.1,20.3-3.4c9-2.2,15.8-3.4,20.5-3.4c13.4,0,29.5,4.8,48.2,14.4
	c0.2,0.1,0.5,0.3,0.7,0.5l2.5,2.3c0.1,0.1,0.3,0.2,0.4,0.3c1.2,0.8,2.6,1.3,4,1.5c0.2,0,0.4,0,0.6,0l4.5-0.8l2.4-0.4
	c1.6-0.3,3.2-0.3,4.7,0.1c6.2,1.3,16.2,7.6,30.2,12.2l55.5,24.8c0.1,0,0.2,0.1,0.4,0.1c5.8,1.3,7.1-0.1,20.6,2.9
	c0.3,0.1,0.3,0.4,0,0.4l-95.1,12.6c-0.1,0-0.3,0-0.4,0h-75.7c-14.9,0-29.5,4.7-41.7,13.4c-3.1,2.2-6.4,4.1-9.8,5.6
	c-4.1,1.9-9.7,2.8-16.8,2.8l-238.8-8.2c-1.6,0-2.8-1.3-2.9-2.9c0-3.4-0.2-6.8-0.7-10.1c-0.2-1.4-1.5-2.5-2.9-2.5
	c-11.2,0-20.7-0.4-28.5-1.2L0.7,99.7c-3.5-0.3,8.5-3.7,12-4.2C19.6,94.5,28,94,28.1,94z"/>
</svg>
