<?xml version="1.0" encoding="utf-8"?>
<!-- Generator: Adobe Illustrator 23.0.2, SVG Export Plug-In . SVG Version: 6.00 Build 0)  -->
<svg version="1.1" id="图层_1" xmlns="http://www.w3.org/2000/svg" xmlns:xlink="http://www.w3.org/1999/xlink" x="0px" y="0px"
	 viewBox="0 0 200 200" style="enable-background:new 0 0 200 200;" xml:space="preserve">
<style type="text/css">
	.st0{fill:#F39936;}
</style>
<path class="st0" d="M55.8,144.3c0,5.7-4.6,10.2-10.2,10.2c-5.7,0-10.2-4.6-10.2-10.2c0-5.7,4.6-10.3,10.2-10.3
	S55.8,138.7,55.8,144.3z M71.8,134.1c-5.7,0-10.2,4.6-10.2,10.3c0,5.7,4.6,10.2,10.2,10.2c5.7,0,10.2-4.6,10.2-10.2
	C81.9,138.7,77.4,134.1,71.8,134.1z M98.2,134.1c-5.7,0-10.2,4.6-10.2,10.3c0,5.7,4.6,10.2,10.2,10.2c5.7,0,10.2-4.6,10.2-10.2
	C108.4,138.7,103.8,134.1,98.2,134.1z M125.1,134.1c-5.7,0-10.2,4.6-10.2,10.3c0,5.7,4.6,10.2,10.2,10.2c5.7,0,10.2-4.6,10.2-10.2
	C135.3,138.7,130.7,134.1,125.1,134.1z M152.2,134.1c-5.7,0-10.2,4.6-10.2,10.3c0,5.7,4.6,10.2,10.2,10.2c5.7,0,10.2-4.6,10.2-10.2
	C162.4,138.7,157.9,134.1,152.2,134.1z M175.8,124.5c4.6,5.3,7.4,12.2,7.4,19.8c0,16.8-13.8,30.7-30.6,30.7H43.9
	c-16.8,0-30.6-13.8-30.6-30.7c0-6.7,2.2-12.8,5.8-17.8c-1.4-0.8-2.4-2.3-2.4-4.1V59.1h122.3l47.6,54.6L175.8,124.5L175.8,124.5z
	 M30.3,113.6h135.9l-34-40.9H30.3L30.3,113.6L30.3,113.6z M169.7,144.3c0-9.4-7.7-17.1-17-17.1H43.9c-9.3,0-17,7.7-17,17.1
	c0,9.4,7.7,17.1,17,17.1h108.7C162,161.3,169.7,153.7,169.7,144.3L169.7,144.3z M64.3,86.3H43.9V100h20.4V86.3z M98.3,86.3H77.9V100
	h20.4V86.3z M132.3,86.3h-20.3V100h20.4L132.3,86.3L132.3,86.3z M81.3,48.8H147V35.3H75.9C73.3,29.5,70.7,25,68.6,25H41.4
	c-6.1,0-11.1,5-11.1,11.1v23h54.4C84.7,59.1,83.3,54.6,81.3,48.8z"/>
</svg>
