<?xml version="1.0" encoding="utf-8"?>
<!-- Generator: Adobe Illustrator 23.0.2, SVG Export Plug-In . SVG Version: 6.00 Build 0)  -->
<svg version="1.1" id="图层_1" xmlns="http://www.w3.org/2000/svg" xmlns:xlink="http://www.w3.org/1999/xlink" x="0px" y="0px"
	 viewBox="0 0 200 200" style="enable-background:new 0 0 200 200;" xml:space="preserve">
<style type="text/css">
	.st0{fill:#29FCFF;}
</style>
<path class="st0" d="M10.9,145.5c0.1-10,6.6-15.9,16.6-15.2l18.3,1.2c2.7,0.1,5.4,0,8.4,0c0-17.3,0-34.1-0.1-51
	c0-0.7-1.1-1.4-1.6-2.1c-0.5-0.6-1.3-1.5-1.1-1.9c0.3-0.7,1.1-1.4,1.9-1.6c0.8-0.3,1.8-0.2,3.2-0.2v-4c0-10.2,0-20.4,0.1-30.5
	c0-0.9,1.1-1.9,1.6-2.8c0.5,0.9,1.3,1.9,1.3,2.8c0.1,10.2,0.1,20.4,0.1,30.5v3.1c2.3,1.1,4,1.9,5.6,2.7c-1,1-2.1,2-3.5,3.3v26.8h4.1
	c15.6,0,31.1,0.1,46.7-0.1c2.6,0,4.1,0.8,5.6,2.8c3.4,4.8,7,9.4,10.8,13.9c0.9,1,2.8,1.9,4.1,1.7c12.5-2.1,25-4.4,37.4-6.8
	c6.7-1.3,13.4-2.9,20.6-4.4c-3.3,7.3-6.4,14-9.4,20.8c-8.4,19.1-23,28.6-44,28.5c-30.7-0.1-61.3,0-92,0H10.9
	C10.9,156.7,10.8,151.1,10.9,145.5z M116,114.6c-0.4-0.5-1.2-0.8-1.8-0.9c-9.8-0.1-19.6,0-29.6,0v10.5h39
	C120.9,120.7,118.5,117.7,116,114.6L116,114.6z M79.2,114H68.9v10.3h10.3C79.2,124.3,79.2,114,79.2,114z"/>
</svg>
