<svg xmlns="http://www.w3.org/2000/svg" version="1.1" width="128" height="128"
     viewBox="0 0 256 256" style="font-size: 128px;">
    <!-- Generator: Sketch 51.2 (57519) - http://www.bohemiancoding.com/sketch -->
    <title>xhdpi/Group 10</title>
    <desc>Created with Sketch.</desc>
    <defs></defs>
    <g transform="matrix(0.28701572,0,0,0.28701572,-18.00434,-19.886022)">
        <g stroke="none" fill-rule="evenodd" stroke-width="1" id="Page-1" fill="none">
            <g fill-rule="nonzero" transform="translate(-448.000000, -3157.000000)" id="商务icon-1024">
                <g transform="translate(448.000000, 3157.000000)" id="网络">
                    <g id="Group-10">
                        <g transform="translate(32.000000, 80.000000)" id="网络">
                            <path transform="translate(482.666667, 370.665583) scale(-1, 1) rotate(15.000000) translate(-482.666667, -370.665583) "
                                  d="M149.835039,224.986757 C153.942613,223.359175 158.591874,225.369605 160.219456,229.477178 C161.847038,233.584751 159.836608,238.234013 155.729035,239.861595 C81.3133856,269.347999 40,307.311858 40,345.716324 C40,430.959751 237.955726,504 482.666667,504 C727.377607,504 925.333333,430.959751 925.333333,345.716324 C925.333333,305.922869 880.960683,266.649019 801.72994,236.82032 C797.594991,235.2636 795.504925,230.64959 797.061645,226.514641 C798.618366,222.379692 803.232376,220.289626 807.367325,221.846346 C892.178347,253.775902 941.333333,297.282556 941.333333,345.716324 C941.333333,444.144774 735.74838,520 482.666667,520 C229.584953,520 24,444.144774 24,345.716324 C24,298.874246 69.9678767,256.633264 149.835039,224.986757 Z"
                                  id="Oval" fill="#404040"></path>
                            <path d="M490.429224,730.666667 C289.986345,730.666667 127.525114,567.085013 127.525114,365.333333 C127.525114,163.581653 289.986345,0 490.429224,0 C690.872102,0 853.333333,163.581653 853.333333,365.333333 C853.333333,567.085013 690.872102,730.666667 490.429224,730.666667 Z M490.429224,709.333333 C679.057081,709.333333 832,555.335636 832,365.333333 C832,175.331031 679.057081,21.3333333 490.429224,21.3333333 C301.801366,21.3333333 148.858447,175.331031 148.858447,365.333333 C148.858447,555.335636 301.801366,709.333333 490.429224,709.333333 Z"
                                  id="Oval-4" fill="#404040"></path>
                            <path d="M201.406698,729.302455 C207.229268,728.406913 212.675375,732.401058 213.570918,738.223628 C214.46646,744.046198 210.472315,749.492305 204.649745,750.387847 C163.889756,756.656953 131.241417,764.188132 109.039627,772.425017 C89.3751216,779.720567 80,786.933636 80,790.508169 C80,793.832663 88.3971141,800.585369 106.311335,807.55501 C126.675226,815.477712 156.73301,822.799078 194.47099,829.009125 C272.35595,841.825637 377.945257,849.174835 490.666667,849.174835 C603.388076,849.174835 708.977384,841.825637 786.862343,829.009125 C824.600323,822.799078 854.658107,815.477712 875.021999,807.55501 C892.936219,800.585369 901.333333,793.832663 901.333333,790.508169 C901.333333,786.957236 892.051753,779.787145 872.553521,772.521619 C850.526189,764.313688 818.123321,756.801419 777.648263,750.536689 C771.826548,749.635604 767.837589,744.185697 768.738674,738.363982 C769.639759,732.542267 775.089666,728.553308 780.911381,729.454394 C871.962182,743.547238 922.666667,762.440989 922.666667,790.508169 C922.666667,817.699486 875.529174,836.038627 790.326305,850.059353 C711.200505,863.080054 604.477363,870.508169 490.666667,870.508169 C376.85597,870.508169 270.132828,863.080054 191.007029,850.059353 C105.80416,836.038627 58.6666667,817.699486 58.6666667,790.508169 C58.6666667,762.351099 109.747174,743.400183 201.406698,729.302455 Z"
                                  id="Oval" fill="#404040"></path>
                            <circle cx="192" r="53.3333333" cy="533.333333" id="Oval-5" fill="#00A6FF"></circle>
                            <path d="M170.666667,589.333333 C136.793202,589.333333 109.333333,561.873465 109.333333,528 C109.333333,494.126535 136.793202,466.666667 170.666667,466.666667 C204.540131,466.666667 232,494.126535 232,528 C232,561.873465 204.540131,589.333333 170.666667,589.333333 Z M170.666667,573.333333 C195.703575,573.333333 216,553.036909 216,528 C216,502.963091 195.703575,482.666667 170.666667,482.666667 C145.629758,482.666667 125.333333,502.963091 125.333333,528 C125.333333,553.036909 145.629758,573.333333 170.666667,573.333333 Z"
                                  id="Oval-5" fill="#404040"></path>
                            <circle cx="597.333333" r="133.333333" cy="448" id="Oval-3" fill="#00A6FF"></circle>
                            <path d="M576,589.333333 C497.943755,589.333333 434.666667,526.056245 434.666667,448 C434.666667,369.943755 497.943755,306.666667 576,306.666667 C654.056245,306.666667 717.333333,369.943755 717.333333,448 C717.333333,526.056245 654.056245,589.333333 576,589.333333 Z M576,573.333333 C645.219689,573.333333 701.333333,517.219689 701.333333,448 C701.333333,378.780311 645.219689,322.666667 576,322.666667 C506.780311,322.666667 450.666667,378.780311 450.666667,448 C450.666667,517.219689 506.780311,573.333333 576,573.333333 Z"
                                  id="Oval-19" fill="#404040"></path>
                        </g>
                    </g>
                </g>
            </g>
        </g>
    </g>
</svg>