<svg id="图层_1" xmlns="http://www.w3.org/2000/svg" viewBox="0 0 256 256" width="128" height="128" data-name="图层 1"
     style="font-size: 128px;">
    <defs>
        <style>.cls-1{fill:#4889ff;}.cls-2{fill:#fff;}.cls-3{fill:#022ed8;}</style>
    </defs>
    <title>1</title>
    <g transform="matrix(0.25520376,0,0,0.25520376,-2.6643006,-2.6694314)">
        <path class="cls-1"
              d="M511.94,1003.54c-130.76,0-253.85-50.8-346.59-143S21.13,645.33,20.47,514.48c-.67-131.29,49.84-255,142.21-348.29S378.22,21.13,509.52,20.47h2.53c130.77,0,253.85,50.8,346.6,143s144.22,215.16,144.88,346c1.37,271-218,492.64-489,494Z"></path>
        <path class="cls-2"
              d="M89.82,433.12a9.87,9.87,0,0,1-2.08-.22A10,10,0,0,1,80,421.05c24.37-115.39,92.22-214.39,191-278.76A10,10,0,1,1,282,159.05C187.64,220.5,122.86,315,99.6,425.18A10,10,0,0,1,89.82,433.12Z"></path>
        <circle r="10" class="cls-2" cx="313.54" cy="132.18"></circle>
        <path class="cls-2"
              d="M995.41,509.3h0a20.85,20.85,0,0,0-21-20.74l-267.36,1.56a8.33,8.33,0,0,1-8.36-8.17c-2.57-116.55-19.91-225.38-49.5-309.15C614.68,75,566,21.13,512.08,21.13S409.49,75,375,172.8C345.19,257.05,327.83,366.65,325.41,484a8.32,8.32,0,0,1-8.26,8.18L45.32,493.7a20.86,20.86,0,0,0-20.74,21h0a20.85,20.85,0,0,0,21,20.75l271.52-1.56a8.31,8.31,0,0,1,8.35,8.17C328,658.84,345.3,767.93,375,851.87c34.54,97.81,83.25,151.67,137.13,151.67s102.6-53.86,137.14-151.67C679,767.45,696.4,657.59,698.76,540a8.34,8.34,0,0,1,8.27-8.19l267.65-1.57A20.84,20.84,0,0,0,995.41,509.3ZM512.08,62.84c66,0,139.34,170.56,144.93,419a8.37,8.37,0,0,1-8.32,8.55l-273.16,1.42a8.38,8.38,0,0,1-8.4-8.55C372.47,234.05,445.91,62.84,512.08,62.84Zm0,899C446,961.83,372.61,791,367.14,542.09a8.37,8.37,0,0,1,8.32-8.54l273.19-1.42a8.38,8.38,0,0,1,8.4,8.54C651.84,790.29,578.32,961.83,512.08,961.83Z"></path>
        <path class="cls-3"
              d="M865.7,156.42C771.07,62.3,645.48,10.46,512,10.46h-2.55c-134,.67-259.65,53.48-353.9,148.68S9.79,380.57,10.47,514.53c.67,133.52,53.17,258.9,147.83,353.05s220.22,146,353.64,146h2.59c276.54-1.39,500.39-227.51,499-504.06C1012.86,376,960.36,250.57,865.7,156.42ZM992.29,477.13a4,4,0,0,1-5.61,3.92,30.53,30.53,0,0,0-12.12-2.5h-.18L716.5,480.07a8,8,0,0,1-8-7.78c-3.31-113.79-20.93-221-49.83-302.83C638.56,112.58,613.51,70,585.15,43.33a4,4,0,0,1,3.44-6.82c99.07,15.75,190.51,62,263,134.09C934.77,253.33,984,361.17,992.29,477.13ZM512.1,993.54h0c-49.32,0-94.67-51.51-127.69-145-29.07-82.29-46.46-191.23-48.95-306.74a18.42,18.42,0,0,0-18.31-17.95H317L45.5,525.41h-.06a10.86,10.86,0,0,1-.06-21.71l271.82-1.56a18.22,18.22,0,0,0,18.21-18c2.39-116,19.78-225.42,49-308,33-93.51,78.38-145,127.7-145s94.69,51.49,127.71,145c29,82.14,46.39,190.82,48.94,306A18.4,18.4,0,0,0,707,500.12h.1l267.37-1.57h.06a10.87,10.87,0,0,1,10.85,10.81,10.87,10.87,0,0,1-10.79,10.91L707,521.83a18.22,18.22,0,0,0-18.21,18c-2.34,116.28-19.73,225.92-49,308.72C606.77,942,561.42,993.53,512.1,993.54ZM169.78,173.22C242.69,99.58,335.19,52.37,435.64,36.46a4,4,0,0,1,3.43,6.82c-28.38,26.61-53.45,69.27-73.55,126.18-29.09,82.35-46.72,190.32-49.88,304.94a8,8,0,0,1-7.92,7.79L45.26,483.7a30.82,30.82,0,0,0-8.64,1.3,4,4,0,0,1-5.16-4.06C38.79,364.89,87.19,256.66,169.78,173.22ZM172.4,853.4c-82.81-82.37-132-189.65-140.56-305a4,4,0,0,1,5-4.18,30.79,30.79,0,0,0,8.64,1.23h.18l262-1.51a8,8,0,0,1,8,7.78c3.26,114.08,20.88,221.54,49.84,303.52,19.9,56.36,44.69,98.72,72.72,125.38a4,4,0,0,1-3.46,6.81C336,971.55,244.75,925.36,172.4,853.4ZM589.47,987.31A4,4,0,0,1,586,980.5c28-26.66,52.75-69,72.64-125.3,29.15-82.52,46.78-190.73,49.89-305.63a8,8,0,0,1,7.92-7.79l258.28-1.51A30.3,30.3,0,0,0,987,537.62a4,4,0,0,1,5.67,3.86C979,767.14,809,951.66,589.47,987.31Z"></path>
        <path class="cls-3"
              d="M661.78,527.62a18.24,18.24,0,0,0-13.09-5.49h-.09l-273.19,1.42a18.39,18.39,0,0,0-18.27,18.76c5.21,236.84,74.71,429.52,154.94,429.52,80.48,0,150-193.32,155-430.95A18.22,18.22,0,0,0,661.78,527.62ZM512.08,951.83c-50.83,0-127.2-142.34-134.69-400.08a8,8,0,0,1,8-8.25l253.4-1.32a8,8,0,0,1,8,8.25C639.56,809,563.08,951.83,512.08,951.83Z"></path>
        <path class="cls-3"
              d="M375.49,501.84h.09l273.16-1.41A18.39,18.39,0,0,0,667,481.65C661.69,245.2,592.19,52.84,512.08,52.84c-80.36,0-149.87,193-155,430.24a18.39,18.39,0,0,0,18.36,18.76Zm136.59-429c50.74,0,127.06,142.11,134.68,399.38a8,8,0,0,1-8,8.26l-253.36,1.31a8,8,0,0,1-8.06-8.25C384.75,215.41,461.17,72.84,512.08,72.84Z"></path>
    </g>
</svg>