<svg height="128" viewBox="0 0 256 256" xmlns="http://www.w3.org/2000/svg" width="128" style="font-size: 128px;">
    <defs>
        <style>.cls-1{fill:#dce7ee;}.cls-2{fill:#8e7b93;}.cls-3{fill:#c3cbe9;}.cls-4{fill:#ffe99d;}</style>
    </defs>
    <title>网络数据</title>
    <g transform="matrix(0.33365482,0,0,0.33365482,-42.83127,-42.826265)">
        <g data-name="图层 14" id="图层_14">
            <path class="cls-1" d="M148.37,583.44H875.63V210.12a54,54,0,0,0-53.89-53.9H202.26a54,54,0,0,0-53.89,53.9ZM559.13,252.67h214.5a10,10,0,0,1,0,20H559.13a10,10,0,1,1,0-20Zm0,61.1h214.5a10,10,0,1,1,0,20H559.13a10,10,0,0,1,0-20ZM240.37,233.56a10,10,0,0,1,10-10H479.26a10,10,0,0,1,10,10V352.88a10,10,0,0,1-10,10H250.37a10,10,0,0,1-10-10Zm10,185.4H773.63a10,10,0,0,1,0,20H250.37a10,10,0,1,1,0-20Zm0,68.93H773.63a10,10,0,0,1,0,20H250.37a10,10,0,0,1,0-20Z"></path>
            <path class="cls-2" d="M821.74,136.22H202.26a74,74,0,0,0-73.89,73.9V664.25a70.08,70.08,0,0,0,70,70H502v86H391.22a33.75,33.75,0,0,0,0,67.5H632.78a33.75,33.75,0,1,0,0-67.5H522v-86H825.63a70.08,70.08,0,0,0,70-70V210.12A74,74,0,0,0,821.74,136.22ZM646.53,854a13.77,13.77,0,0,1-13.75,13.75H391.22a13.75,13.75,0,1,1,0-27.5H632.78A13.76,13.76,0,0,1,646.53,854ZM202.26,156.22H821.74a54,54,0,0,1,53.89,53.9V583.44H148.37V210.12A54,54,0,0,1,202.26,156.22Zm-3.89,558a50.06,50.06,0,0,1-50-50V603.44H875.63v60.81a50.06,50.06,0,0,1-50,50H198.37Z"></path>
            <path class="cls-3" d="M821.74,714.25h3.89a50.06,50.06,0,0,0,50-50V603.44H148.37v60.81a50.06,50.06,0,0,0,50,50H821.74Z"></path>
            <path class="cls-3" d="M391.22,840.28a13.75,13.75,0,1,0,0,27.5H632.78a13.75,13.75,0,0,0,0-27.5Z"></path>
            <rect x="260.37" height="99.33" class="cls-4" y="243.56" width="208.89"></rect>
            <path class="cls-2" d="M250.37,362.88H479.26a10,10,0,0,0,10-10V233.56a10,10,0,0,0-10-10H250.37a10,10,0,0,0-10,10V352.88A10,10,0,0,0,250.37,362.88Zm10-119.32H469.26v99.32H260.37Z"></path>
            <path class="cls-2" d="M559.13,272.67h214.5a10,10,0,0,0,0-20H559.13a10,10,0,1,0,0,20Z"></path>
            <path class="cls-2" d="M559.13,333.77h214.5a10,10,0,1,0,0-20H559.13a10,10,0,0,0,0,20Z"></path>
            <path class="cls-2" d="M250.37,439H773.63a10,10,0,0,0,0-20H250.37a10,10,0,1,0,0,20Z"></path>
            <path class="cls-2" d="M250.37,507.89H773.63a10,10,0,0,0,0-20H250.37a10,10,0,0,0,0,20Z"></path>
        </g>
    </g>
</svg>